# xmcd
#
# Track frame offsets: 
#        150
#        10545
#        24087
#        36991
#        48116
#        58371
#        67703
#        79483
#        89030
#        100940
#        115525
#        126235
#        136963
#        147634
#        158423
#        168746
#        181737
#        192136
#        201446
#        215046
#        224961
#        234671
#        247689
#        258462
#        270262
#        278817
#        289944
#        301149
#        311371
#
# Disc length: 4277 seconds
#
# Revision: 0
# Processed by: cddbd v1.5.2PL0 Copyright (c) Steve Scherf et al.
# Submitted via: ExactAudioCopy v0.95b4
#
DISCID=a510b31d
DTITLE=Various Artist - Billboard 1961
DYEAR=2000
DGENRE=Other
TTITLE0=Del Shannon - Runaway
TTITLE1=Elvis Presley - Can't Help Falling in Love
TTITLE2=The Monkees - I'm a Believer
TTITLE3=Roy Orbison - Only the Lonely
TTITLE4=The Byrds - Mr. Tambourine Man
TTITLE5=The Ventures - Walk Don't Run
TTITLE6=The Skyliners - Since I Don't Have You
TTITLE7=Little Richard - Good Golly, Miss Molly
TTITLE8=The Platters - Smoke in Your Eyes
TTITLE9=Elvis Presley - It's Now or Never
TTITLE10=Chuck Berry - Roll Over Beethoven
TTITLE11=Chubby Checker - Let's Twist Again
TTITLE12=The Marcels - Blue Moon
TTITLE13=James Darren - Goodbye Cruel World
TTITLE14=Frankie Lymon - Why Do Fools Fall in Love
TTITLE15=The Contours - Do You Love Me
TTITLE16=Lesly Gore - It's My Party
TTITLE17=Little Richard - Long Tall Sally
TTITLE18=Chuck Berry - Sweet Little Sixteen
TTITLE19=The Regents - Barbara Anne
TTITLE20=The Tempos - See You in September
TTITLE21=Buster Brown - Fannie Mae
TTITLE22=Lee Dorsey - Ya Ya
TTITLE23=Mark Dinning - Teen Angel
TTITLE24=Jerry Lee Lewis - Great Balls of Fire
TTITLE25=Chubby Checker - Limbo Rock
TTITLE26=Elvis Presley - Little Sister
TTITLE27=Buddy Holly - That'll Be the Day
TTITLE28=The Diamonds - Little Darlin'
EXTD=
EXTT0=
EXTT1=
EXTT2=
EXTT3=
EXTT4=
EXTT5=
EXTT6=
EXTT7=
EXTT8=
EXTT9=
EXTT10=
EXTT11=
EXTT12=
EXTT13=
EXTT14=
EXTT15=
EXTT16=
EXTT17=
EXTT18=
EXTT19=
EXTT20=
EXTT21=
EXTT22=
EXTT23=
EXTT24=
EXTT25=
EXTT26=
EXTT27=
EXTT28=
PLAYORDER=
